<svg width="768" height="1024" viewBox="0 0 768 1024" fill="none" xmlns="http://www.w3.org/2000/svg">
<g opacity="0.202044">
<circle cx="763.5" cy="238.5" r="1.5" fill="white"/>
<circle cx="766.5" cy="164.5" r="1.5" fill="white"/>
<circle cx="583" cy="95" r="2" fill="white"/>
<circle cx="552" cy="135" r="2" fill="white"/>
<circle cx="503.5" cy="153.5" r="1.5" fill="white"/>
<circle cx="492.5" cy="168.5" r="1.5" fill="white"/>
<circle cx="581" cy="276" r="4" fill="white"/>
<circle cx="470" cy="238" r="2" fill="white"/>
<circle cx="423" cy="197" r="2" fill="white"/>
<circle cx="430.5" cy="122.5" r="0.5" fill="white"/>
<circle cx="384.5" cy="147.5" r="1.5" fill="white"/>
<circle cx="423.5" cy="340.5" r="2.5" fill="white"/>
<circle cx="690.5" cy="200.5" r="1.5" fill="white"/>
<circle cx="727" cy="283" r="2" fill="white"/>
<circle cx="220" cy="6" r="2" fill="white"/>
<circle cx="258.5" cy="180.5" r="1.5" fill="white"/>
<circle cx="224" cy="231" r="2" fill="white"/>
<circle cx="79.5" cy="154.5" r="3.5" fill="white"/>
<circle cx="58.5" cy="145.5" r="1.5" fill="white"/>
<circle cx="4" cy="198" r="2" fill="white"/>
<circle cx="22" cy="208" r="2" fill="white"/>
<circle cx="129.5" cy="330.5" r="1.5" fill="white"/>
<circle cx="245.5" cy="340.5" r="1.5" fill="white"/>
<circle cx="262" cy="358" r="2" fill="white"/>
<circle cx="47.5" cy="439.5" r="1.5" fill="white"/>
<circle cx="104" cy="430" r="2" fill="white"/>
<circle cx="129" cy="463" r="2" fill="white"/>
<circle cx="6.5" cy="1020.5" r="3.5" fill="white"/>
<circle cx="85.5" cy="938.5" r="1.5" fill="white"/>
<circle cx="150.5" cy="1012.5" r="2.5" fill="white"/>
<circle cx="173.5" cy="1019.5" r="2.5" fill="white"/>
<circle cx="164.5" cy="1003.5" r="0.5" fill="white"/>
<circle cx="437.5" cy="894.5" r="2.5" fill="white"/>
<circle cx="493" cy="1023" r="2" fill="white"/>
<circle cx="581.5" cy="1018.5" r="2.5" fill="white"/>
<circle cx="580" cy="1011" r="2" fill="white"/>
<circle cx="621.5" cy="1018.5" r="2.5" fill="white"/>
<circle cx="525" cy="934" r="2" fill="white"/>
<circle cx="563" cy="791" r="2" fill="white"/>
<circle cx="309.5" cy="714.5" r="1.5" fill="white"/>
<circle cx="449" cy="879" r="2" fill="white"/>
<circle cx="451.5" cy="948.5" r="2.5" fill="white"/>
<circle cx="526" cy="461" r="4" fill="white"/>
<circle cx="630.5" cy="394.5" r="3.5" fill="white"/>
<circle cx="610.5" cy="413.5" r="1.5" fill="white"/>
<circle cx="195" cy="826" r="2" fill="white"/>
<circle cx="217.5" cy="805.5" r="1.5" fill="white"/>
<circle cx="64" cy="825" r="2" fill="white"/>
<circle cx="486" cy="400" r="2" fill="white"/>
<circle cx="301.5" cy="440.5" r="1.5" fill="white"/>
<circle cx="312.5" cy="392.5" r="1.5" fill="white"/>
<circle cx="80.5" cy="525.5" r="3.5" fill="white"/>
<circle cx="76.5" cy="604.5" r="1.5" fill="white"/>
<circle cx="205" cy="630" r="2" fill="white"/>
<circle cx="220.5" cy="556.5" r="2.5" fill="white"/>
<circle cx="147.5" cy="535.5" r="1.5" fill="white"/>
<circle cx="518.5" cy="717.5" r="3.5" fill="white"/>
<circle cx="544.5" cy="662.5" r="3.5" fill="white"/>
<circle cx="434" cy="689" r="2" fill="white"/>
<circle cx="621" cy="538" r="2" fill="white"/>
</g>
</svg>
